<svg xmlns="http://www.w3.org/2000/svg" xmlns:xlink="http://www.w3.org/1999/xlink" width="500" zoomAndPan="magnify" viewBox="0 0 375 374.999991" height="500" preserveAspectRatio="xMidYMid meet" version="1.0"><path fill="#ffffff" d="M 264.027344 264.007812 C 260.945312 267.089844 257.710938 269.914062 254.375 272.546875 L 171.257812 189.429688 L 174.175781 178.539062 L 155.144531 159.507812 L 129.148438 166.472656 L 122.183594 192.46875 L 141.210938 211.5 L 152.105469 208.582031 L 230.371094 286.847656 C 190.851562 303.882812 143.257812 296.289062 110.972656 264.007812 C 68.710938 221.742188 68.707031 153.21875 110.972656 110.953125 L 90.863281 90.847656 C 37.492188 144.214844 37.492188 230.746094 90.863281 284.117188 C 136.089844 329.34375 205.121094 336.230469 257.617188 304.804688 C 257.65625 304.777344 257.695312 304.75 257.734375 304.726562 C 259.660156 303.574219 261.566406 302.367188 263.441406 301.109375 C 263.445312 301.105469 263.445312 301.105469 263.449219 301.105469 C 267.269531 298.542969 270.992188 295.765625 274.597656 292.773438 L 274.601562 292.773438 C 277.875 290.058594 281.066406 287.1875 284.136719 284.117188 L 264.027344 264.007812 " fill-opacity="1" fill-rule="nonzero"/><path fill="#005424" d="M 284.136719 90.847656 C 238.910156 45.621094 169.878906 38.734375 117.382812 70.15625 C 117.34375 70.179688 117.304688 70.207031 117.265625 70.230469 C 115.339844 71.386719 113.433594 72.59375 111.558594 73.851562 C 111.554688 73.851562 111.554688 73.851562 111.550781 73.855469 C 107.730469 76.417969 104.007812 79.195312 100.402344 82.183594 L 100.398438 82.1875 C 97.125 84.902344 93.933594 87.777344 90.863281 90.847656 L 110.972656 110.953125 C 114.054688 107.875 117.289062 105.042969 120.625 102.414062 L 203.742188 185.53125 L 200.824219 196.421875 L 219.855469 215.453125 L 245.851562 208.484375 L 252.816406 182.492188 L 233.785156 163.460938 L 222.894531 166.378906 L 144.628906 88.113281 C 184.148438 71.078125 231.742188 78.667969 264.027344 110.953125 C 306.289062 153.214844 306.292969 221.742188 264.027344 264.007812 L 284.136719 284.117188 C 337.507812 230.746094 337.507812 144.214844 284.136719 90.847656 " fill-opacity="1" fill-rule="nonzero"/></svg>